<?xml version="1.0" encoding="utf-8"?>
<!-- Generator: Adobe Illustrator 27.8.1, SVG Export Plug-In . SVG Version: 6.00 Build 0)  -->
<svg version="1.1" id="Layer_1" xmlns="http://www.w3.org/2000/svg" xmlns:xlink="http://www.w3.org/1999/xlink" x="0px" y="0px"
	 viewBox="0 0 73 65" style="enable-background:new 0 0 73 65;" xml:space="preserve">
<style type="text/css">
	.st0{fill:#FFFFFF;}
	.st1{fill:#F000B8;}
</style>
<g id="Page-1">
	<g id="Group">
		<g id="P-Copy-2" transform="translate(31.000000, 28.000000)">
		</g>
		<g id="P">
			<path id="Path" class="st0" d="M17.2,27.9c1.9,0,3.4-1.5,3.4-3.4S19.1,21,17.2,21c-1.9,0-3.4,1.5-3.4,3.4S15.3,27.9,17.2,27.9z"
				/>
			<path id="Path_00000029027458206524507730000018061191865349614527_" class="st0" d="M58.4,13.9c1.9,0,3.4-1.5,3.4-3.4
				S60.4,7,58.4,7C56.5,7,55,8.5,55,10.4S56.5,13.9,58.4,13.9z"/>
			<path id="Path_00000003817278297877637310000016069353004885319575_" class="st0" d="M51.4,6.9c1.9,0,3.3-1.4,3.4-3.2l0-0.2l0,0
				c0-1.9-1.5-3.4-3.4-3.4C49.5,0,48,1.5,48,3.4S49.5,6.9,51.4,6.9z"/>
			<path id="Path_00000142888013785315176800000016207409658900538763_" class="st0" d="M44.4,6.9c1.9,0,3.3-1.4,3.4-3.2l0-0.2l0,0
				c0-1.9-1.5-3.4-3.4-3.4C42.5,0,41,1.5,41,3.4S42.5,6.9,44.4,6.9z"/>
			<path id="Path_00000153698839431338183330000009089001180438861728_" class="st0" d="M44.7,13.9c1.9,0,3.3-1.4,3.4-3.2l0-0.2l0,0
				c0-1.9-1.5-3.4-3.4-3.4c-1.9,0-3.4,1.5-3.4,3.4S42.8,13.9,44.7,13.9z"/>
			<path id="Path_00000150807141318642243690000001733189273255394747_" class="st0" d="M17.3,13.9c1.9,0,3.3-1.4,3.4-3.2l0-0.2l0,0
				c0-1.9-1.5-3.4-3.4-3.4s-3.4,1.5-3.4,3.4S15.4,13.9,17.3,13.9z"/>
			<path id="Path_00000046301174117460887480000007338898614744769707_" class="st0" d="M51.6,13.9c1.9,0,3.4-1.5,3.4-3.4
				S53.5,7,51.6,7c-1.9,0-3.4,1.5-3.4,3.4S49.7,13.9,51.6,13.9z"/>
			<path id="Path_00000036240923497763172720000009799820516810064039_" class="st0" d="M24.2,13.9c1.9,0,3.3-1.4,3.4-3.2l0-0.2l0,0
				c0-1.9-1.5-3.4-3.4-3.4s-3.4,1.5-3.4,3.4S22.2,13.9,24.2,13.9z"/>
			<path id="Path_00000123437509563998552400000003221752049512551355_" class="st0" d="M31,13.9c1.9,0,3.3-1.4,3.4-3.2l0-0.2l0,0
				C34.4,8.5,32.9,7,31,7s-3.4,1.5-3.4,3.4S29.1,13.9,31,13.9z"/>
			<path id="Path_00000163766384899922306230000002951812751075179695_" class="st0" d="M37.9,13.9c1.9,0,3.3-1.4,3.4-3.2l0-0.2l0,0
				c0-1.9-1.5-3.4-3.4-3.4c-1.9,0-3.4,1.5-3.4,3.4S35.9,13.9,37.9,13.9z"/>
			<path id="Path_00000057109953525608920190000004575952020218959760_" class="st0" d="M44.8,20.9c1.9,0,3.3-1.4,3.4-3.2l0-0.2l0,0
				c0-1.9-1.5-3.4-3.4-3.4c-1.9,0-3.4,1.5-3.4,3.4S42.8,20.9,44.8,20.9z"/>
			<path id="Path_00000126297009404397772220000016908295023289792928_" class="st0" d="M58.5,20.9c1.9,0,3.4-1.5,3.4-3.4
				S60.5,14,58.5,14c-1.9,0-3.4,1.5-3.4,3.4S56.6,20.9,58.5,20.9z"/>
			<path id="Path-Copy-11" class="st0" d="M65.4,20.9c1.9,0,3.4-1.5,3.4-3.4S67.4,14,65.4,14c-1.9,0-3.4,1.5-3.4,3.4
				S63.5,20.9,65.4,20.9z"/>
			<path id="Path-Copy-14" class="st0" d="M3.4,20.9c1.9,0,3.4-1.5,3.4-3.4S5.4,14,3.4,14S0,15.5,0,17.4S1.5,20.9,3.4,20.9z"/>
			<path id="Path_00000178911276848739495380000001641560125416448688_" class="st0" d="M24.1,20.9c1.9,0,3.4-1.5,3.4-3.4
				S26,14,24.1,14s-3.4,1.5-3.4,3.4S22.2,20.9,24.1,20.9z"/>
			<path id="Path_00000167388887704073585790000012511745206953749912_" class="st0" d="M17.2,20.9c1.9,0,3.3-1.4,3.4-3.2l0-0.2l0,0
				c0-1.9-1.5-3.4-3.4-3.4c-1.9,0-3.4,1.5-3.4,3.4S15.3,20.9,17.2,20.9z"/>
			<path id="Path_00000042003756517286397760000003467461061404635530_" class="st0" d="M10.3,20.9c1.9,0,3.3-1.4,3.4-3.2l0-0.2l0,0
				c0-1.9-1.5-3.4-3.4-3.4s-3.4,1.5-3.4,3.4S8.4,20.9,10.3,20.9z"/>
			<path id="Path_00000018210907967016089190000004438225130346544260_" class="st0" d="M51.7,20.9c1.9,0,3.3-1.4,3.4-3.2l0-0.2l0,0
				c0-1.9-1.5-3.4-3.4-3.4c-1.9,0-3.4,1.5-3.4,3.4S49.7,20.9,51.7,20.9z"/>
			<path id="Path_00000135687334326473636930000015225040259819490217_" class="st0" d="M58.5,27.9c1.9,0,3.4-1.5,3.4-3.4
				S60.5,21,58.5,21c-1.9,0-3.4,1.5-3.4,3.4S56.6,27.9,58.5,27.9z"/>
			<path id="Path-Copy-12" class="st0" d="M65.4,27.9c1.9,0,3.4-1.5,3.4-3.4S67.4,21,65.4,21c-1.9,0-3.4,1.5-3.4,3.4
				S63.5,27.9,65.4,27.9z"/>
			<path id="Path-Copy-15" class="st0" d="M3.4,27.9c1.9,0,3.4-1.5,3.4-3.4S5.4,21,3.4,21S0,22.5,0,24.4S1.5,27.9,3.4,27.9z"/>
			<path id="Path-Copy-13" class="st0" d="M65.4,34.9c1.9,0,3.4-1.5,3.4-3.4S67.4,28,65.4,28c-1.9,0-3.4,1.5-3.4,3.4
				S63.5,34.9,65.4,34.9z"/>
			<path id="Path-Copy-16" class="st0" d="M3.4,34.9c1.9,0,3.4-1.5,3.4-3.4S5.4,28,3.4,28S0,29.5,0,31.4S1.5,34.9,3.4,34.9z"/>
			<path id="Path_00000003088711731052476400000006834999717186063753_" class="st0" d="M51.7,27.9c1.9,0,3.3-1.4,3.4-3.2l0-0.2l0,0
				c0-1.9-1.5-3.4-3.4-3.4c-1.9,0-3.4,1.5-3.4,3.4S49.7,27.9,51.7,27.9z"/>
			<path id="Path_00000162336044982814632740000014592998017610384030_" class="st0" d="M10.3,27.9c1.9,0,3.3-1.4,3.4-3.2l0-0.2l0,0
				c0-1.9-1.5-3.4-3.4-3.4s-3.4,1.5-3.4,3.4S8.4,27.9,10.3,27.9z"/>
			<path id="Path_00000160870977187657592680000017393907092880288958_" class="st0" d="M58.5,34.9c1.9,0,3.4-1.5,3.4-3.4
				S60.5,28,58.5,28c-1.9,0-3.4,1.5-3.4,3.4S56.6,34.9,58.5,34.9z"/>
			<path id="Path_00000036223575922745787100000002777135844995055777_" class="st0" d="M17.2,34.9c1.9,0,3.4-1.5,3.4-3.4
				S19.1,28,17.2,28c-1.9,0-3.4,1.5-3.4,3.4S15.3,34.9,17.2,34.9z"/>
			<path id="Path_00000132088064377086863500000005200145423930770617_" class="st0" d="M10.3,34.9c1.9,0,3.3-1.4,3.4-3.2l0-0.2l0,0
				c0-1.9-1.5-3.4-3.4-3.4s-3.4,1.5-3.4,3.4S8.4,34.9,10.3,34.9z"/>
			<path id="Path_00000013879412569176455460000017572192566272268176_" class="st0" d="M51.7,34.9c1.9,0,3.3-1.4,3.4-3.2l0-0.2l0,0
				c0-1.9-1.5-3.4-3.4-3.4c-1.9,0-3.4,1.5-3.4,3.4S49.7,34.9,51.7,34.9z"/>
			<path id="Path_00000142139027301435696710000012630646808321049475_" class="st0" d="M44.7,41.9c1.9,0,3.3-1.4,3.4-3.2l0-0.2l0,0
				c0-1.9-1.5-3.4-3.4-3.4c-1.9,0-3.4,1.5-3.4,3.4C41.3,40.4,42.8,41.9,44.7,41.9z"/>
			<path id="Path-Copy-9" class="st0" d="M37.9,41.9c1.9,0,3.3-1.4,3.4-3.2l0-0.2l0,0c0-1.9-1.5-3.4-3.4-3.4c-1.9,0-3.4,1.5-3.4,3.4
				C34.4,40.4,35.9,41.9,37.9,41.9z"/>
			<path id="Path-Copy-10" class="st0" d="M31,41.9c1.9,0,3.3-1.4,3.4-3.2l0-0.2l0,0c0-1.9-1.5-3.4-3.4-3.4s-3.4,1.5-3.4,3.4
				C27.6,40.4,29.1,41.9,31,41.9z"/>
			<path id="Path-Copy-4" class="st0" d="M44.8,34.9c1.9,0,3.3-1.4,3.4-3.2l0-0.2l0,0c0-1.9-1.5-3.4-3.4-3.4c-1.9,0-3.4,1.5-3.4,3.4
				S42.8,34.9,44.8,34.9z"/>
			<path id="Path_00000168076319078100768330000010177910580918335660_" class="st0" d="M10.4,41.9c1.9,0,3.3-1.4,3.4-3.2l0-0.2l0,0
				c0-1.9-1.5-3.4-3.4-3.4S7,36.5,7,38.4C7,40.4,8.5,41.9,10.4,41.9z"/>
			<path id="Path_00000094579216799720825410000014960846318049979537_" class="st0" d="M17.3,41.9c1.9,0,3.4-1.5,3.4-3.4
				c0-1.9-1.5-3.4-3.4-3.4s-3.4,1.5-3.4,3.4C13.9,40.4,15.4,41.9,17.3,41.9z"/>
			<path id="Path_00000134943282112888615950000013903216569988164029_" class="st0" d="M58.4,41.9c1.9,0,3.4-1.5,3.4-3.4
				c0-1.9-1.5-3.4-3.4-3.4c-1.9,0-3.4,1.5-3.4,3.4C55,40.4,56.5,41.9,58.4,41.9z"/>
			<path id="Path_00000043459318327270610390000008561047585438637201_" class="st0" d="M51.6,41.9c1.9,0,3.3-1.4,3.4-3.2l0-0.2l0,0
				c0-1.9-1.5-3.4-3.4-3.4c-1.9,0-3.4,1.5-3.4,3.4C48.1,40.4,49.7,41.9,51.6,41.9z"/>
			<path id="Path_00000136394680085124916800000018326195624047296699_" class="st0" d="M51.4,48.9c1.9,0,3.4-1.5,3.4-3.4
				c0-1.9-1.5-3.4-3.4-3.4c-1.9,0-3.4,1.5-3.4,3.4C48,47.4,49.5,48.9,51.4,48.9z"/>
			<path id="Path_00000003819388550729722450000001142008609732782727_" class="st0" d="M44.6,48.9c1.9,0,3.3-1.4,3.4-3.2l0-0.2l0,0
				c0-1.9-1.5-3.4-3.4-3.4c-1.9,0-3.4,1.5-3.4,3.4C41.2,47.4,42.7,48.9,44.6,48.9z"/>
			<path id="Path_00000093882109980933391820000011520301199169755065_" class="st0" d="M37.9,20.9c1.9,0,3.3-1.4,3.4-3.2l0-0.2l0,0
				c0-1.9-1.5-3.4-3.4-3.4c-1.9,0-3.4,1.5-3.4,3.4S36,20.9,37.9,20.9z"/>
			<path id="Path_00000076564666052800553770000005108182331496232357_" class="st0" d="M24.2,48.9c1.9,0,3.3-1.4,3.4-3.2l0-0.2l0,0
				c0-1.9-1.5-3.4-3.4-3.4s-3.4,1.5-3.4,3.4C20.8,47.4,22.3,48.9,24.2,48.9z"/>
			<path id="Path_00000164481150997624320360000012142541976081439360_" class="st0" d="M31,48.9c1.9,0,3.3-1.4,3.4-3.2l0-0.2l0,0
				c0-1.9-1.5-3.4-3.4-3.4s-3.4,1.5-3.4,3.4C27.6,47.4,29.1,48.9,31,48.9z"/>
			<path id="Path_00000027583726756089182960000009189166243594452640_" class="st0" d="M37.8,48.9c1.9,0,3.3-1.4,3.4-3.2l0-0.2l0,0
				c0-1.9-1.5-3.4-3.4-3.4c-1.9,0-3.4,1.5-3.4,3.4C34.4,47.4,35.9,48.9,37.8,48.9z"/>
			<path id="Path_00000087376665176380444560000004374884356843108518_" class="st0" d="M17.4,48.9c1.9,0,3.3-1.4,3.4-3.2l0-0.2l0,0
				c0-1.9-1.5-3.4-3.4-3.4S14,43.5,14,45.4C14,47.4,15.5,48.9,17.4,48.9z"/>
			<path id="Path_00000142862990763067960800000001817523601668987281_" class="st0" d="M44.7,56c1.9,0,3.4-1.5,3.4-3.4
				c0-1.9-1.5-3.4-3.4-3.4c-1.9,0-3.4,1.5-3.4,3.4C41.2,54.5,42.8,56,44.7,56z"/>
			<path id="Path_00000036971857559574761460000005111297852911422652_" class="st0" d="M37.8,56c1.9,0,3.3-1.4,3.4-3.2l0-0.2
				c0-1.9-1.5-3.4-3.4-3.4c-1.9,0-3.4,1.5-3.4,3.4C34.4,54.5,35.9,56,37.8,56z"/>
			<path id="Path_00000080164925592054850740000000728464723163028671_" class="st0" d="M30.9,56c1.9,0,3.3-1.4,3.4-3.2l0-0.2l0,0
				c0-1.9-1.5-3.4-3.4-3.4s-3.4,1.5-3.4,3.4C27.5,54.5,29,56,30.9,56z"/>
			<path id="Path_00000055698793741306132070000017333400436876659884_" class="st0" d="M44.8,27.9c1.9,0,3.3-1.4,3.4-3.2l0-0.2l0,0
				c0-1.9-1.5-3.4-3.4-3.4c-1.9,0-3.4,1.5-3.4,3.4S42.8,27.9,44.8,27.9z"/>
			<path id="Path-Copy-5" class="st0" d="M37.9,27.9c1.9,0,3.3-1.4,3.4-3.2l0-0.2l0,0c0-1.9-1.5-3.4-3.4-3.4c-1.9,0-3.4,1.5-3.4,3.4
				S36,27.9,37.9,27.9z"/>
			<path id="Path-Copy-6" class="st0" d="M31,27.9c1.9,0,3.3-1.4,3.4-3.2l0-0.2l0,0c0-1.9-1.5-3.4-3.4-3.4s-3.4,1.5-3.4,3.4
				S29.1,27.9,31,27.9z"/>
			<path id="Path_00000163072751884122579200000000171555355394548608_" class="st0" d="M24.1,56c1.9,0,3.3-1.4,3.4-3.2l0-0.2l0,0
				c0-1.9-1.5-3.4-3.4-3.4s-3.4,1.5-3.4,3.4C20.6,54.5,22.1,56,24.1,56z"/>
			<path id="Path_00000085243531889940128430000016570904257234441093_" class="st0" d="M24.1,27.9c1.9,0,3.3-1.4,3.4-3.2l0-0.2l0,0
				c0-1.9-1.5-3.4-3.4-3.4s-3.4,1.5-3.4,3.4S22.2,27.9,24.1,27.9z"/>
			<path id="Path-Copy-2" class="st0" d="M31,20.9c1.9,0,3.3-1.4,3.4-3.2l0-0.2l0,0c0-1.9-1.5-3.4-3.4-3.4s-3.4,1.5-3.4,3.4
				S29.1,20.9,31,20.9z"/>
			<path id="Path-Copy" class="st0" d="M10.4,13.9c1.9,0,3.3-1.4,3.4-3.2l0-0.2l0,0c0-1.9-1.5-3.4-3.4-3.4S7,8.5,7,10.4
				S8.5,13.9,10.4,13.9z"/>
			<path id="Path_00000176002005810320076900000018125190960351933356_" class="st0" d="M24.2,41.9c1.9,0,3.4-1.5,3.4-3.4
				c0-1.9-1.5-3.4-3.4-3.4s-3.4,1.5-3.4,3.4C20.7,40.4,22.2,41.9,24.2,41.9z"/>
			<path id="Path-Copy-3" class="st0" d="M24.1,34.9c1.9,0,3.4-1.5,3.4-3.4S26,28,24.1,28s-3.4,1.5-3.4,3.4S22.2,34.9,24.1,34.9z"/>
			<path id="Path-Copy-7" class="st0" d="M31,34.9c1.9,0,3.4-1.5,3.4-3.4S32.9,28,31,28s-3.4,1.5-3.4,3.4S29.1,34.9,31,34.9z"/>
			<path id="Path-Copy-8" class="st0" d="M37.9,34.9c1.9,0,3.4-1.5,3.4-3.4S39.8,28,37.9,28c-1.9,0-3.4,1.5-3.4,3.4
				S36,34.9,37.9,34.9z"/>
			<path id="Path_00000108311165495451451450000015130121483335739283_" class="st0" d="M17.4,6.9c1.9,0,3.3-1.4,3.4-3.2l0-0.2l0,0
				c0-1.9-1.5-3.4-3.4-3.4S14,1.5,14,3.4S15.5,6.9,17.4,6.9z"/>
			<path id="Path_00000175317843747780757820000003584568217061966478_" class="st0" d="M34.2,62.8c1.9,0,3.4-1.5,3.4-3.4
				c0-1.9-1.5-3.4-3.4-3.4c-1.9,0-3.4,1.5-3.4,3.4C30.7,61.2,32.3,62.8,34.2,62.8z"/>
			<path id="Path_00000032636088372269080010000008872344417042707094_" class="st0" d="M24.4,6.9c1.9,0,3.3-1.4,3.4-3.2l0-0.2l0,0
				c0-1.9-1.5-3.4-3.4-3.4S21,1.5,21,3.4S22.5,6.9,24.4,6.9z"/>
		</g>
		<path id="_x2E_" class="st1" d="M64,64.6c4.6,0,8.4-3.8,8.4-8.5s-3.7-8.4-8.4-8.4c-4.8,0-8.5,3.7-8.5,8.4S59.3,64.6,64,64.6z"/>
	</g>
</g>
</svg>
